<mxfile host="app.diagrams.net" agent="Mozilla/5.0 (Macintosh; Intel Mac OS X 10_15_7) AppleWebKit/537.36 (KHTML, like Gecko) Chrome/129.0.0.0 Safari/537.36" version="24.8.3">
  <diagram name="Page-1" id="Sx72gZ5RG_i1BnQMRzIq">
    <mxGraphModel dx="1907" dy="613" grid="1" gridSize="10" guides="1" tooltips="1" connect="1" arrows="1" fold="1" page="1" pageScale="1" pageWidth="827" pageHeight="1169" math="0" shadow="0">
      <root>
        <mxCell id="0" />
        <mxCell id="1" parent="0" />
        <mxCell id="J2F3tFub7HHDYsEKDTGd-2" value="&lt;font size=&quot;1&quot; style=&quot;&quot;&gt;&lt;b style=&quot;font-size: 21px;&quot;&gt;Domain&lt;/b&gt;&lt;/font&gt;" style="verticalLabelPosition=bottom;verticalAlign=top;html=1;shape=mxgraph.basic.rect;fillColor2=none;strokeWidth=1;size=20;indent=5;fillColor=#f8cecc;strokeColor=#b85450;" parent="1" vertex="1">
          <mxGeometry x="339" y="310" width="190" height="120" as="geometry" />
        </mxCell>
        <mxCell id="J2F3tFub7HHDYsEKDTGd-3" value="&lt;font size=&quot;1&quot; style=&quot;&quot;&gt;&lt;b style=&quot;font-size: 21px;&quot;&gt;Data&lt;/b&gt;&lt;/font&gt;" style="verticalLabelPosition=bottom;verticalAlign=top;html=1;shape=mxgraph.basic.rect;fillColor2=none;strokeWidth=1;size=20;indent=5;fillColor=#d5e8d4;strokeColor=#82b366;" parent="1" vertex="1">
          <mxGeometry x="637" y="310" width="190" height="120" as="geometry" />
        </mxCell>
        <mxCell id="J2F3tFub7HHDYsEKDTGd-4" value="&lt;font size=&quot;1&quot; style=&quot;&quot;&gt;&lt;b style=&quot;font-size: 21px;&quot;&gt;StationsListFeature&lt;/b&gt;&lt;/font&gt;" style="verticalLabelPosition=bottom;verticalAlign=top;html=1;shape=mxgraph.basic.rect;fillColor2=none;strokeWidth=1;size=20;indent=5;fillColor=#fff2cc;strokeColor=#d6b656;" parent="1" vertex="1">
          <mxGeometry x="-40" y="180" width="190" height="150" as="geometry" />
        </mxCell>
        <mxCell id="J2F3tFub7HHDYsEKDTGd-5" value="&lt;font style=&quot;font-size: 11px;&quot;&gt;&lt;b style=&quot;font-size: 11px;&quot;&gt;Entity&lt;/b&gt;&lt;/font&gt;" style="verticalLabelPosition=bottom;verticalAlign=top;html=1;shape=mxgraph.basic.rect;fillColor2=none;strokeWidth=1;size=20;indent=5;fontSize=11;fillColor=#ffe6cc;strokeColor=#d79b00;" parent="1" vertex="1">
          <mxGeometry x="400" y="320" width="61" height="30" as="geometry" />
        </mxCell>
        <mxCell id="J2F3tFub7HHDYsEKDTGd-6" value="&lt;font size=&quot;1&quot; style=&quot;&quot;&gt;&lt;b style=&quot;font-size: 21px;&quot;&gt;StationDetailsFeature&lt;/b&gt;&lt;/font&gt;" style="verticalLabelPosition=bottom;verticalAlign=top;html=1;shape=mxgraph.basic.rect;fillColor2=none;strokeWidth=1;size=20;indent=5;fillColor=#fff2cc;strokeColor=#d6b656;" parent="1" vertex="1">
          <mxGeometry x="-40" y="370" width="190" height="150" as="geometry" />
        </mxCell>
        <mxCell id="J2F3tFub7HHDYsEKDTGd-9" value="Dependency" style="endArrow=classic;endSize=16;endFill=1;html=1;rounded=0;exitX=1.001;exitY=0.531;exitDx=0;exitDy=0;exitPerimeter=0;entryX=0.006;entryY=0.948;entryDx=0;entryDy=0;entryPerimeter=0;fillColor=#008a00;strokeColor=#005700;" parent="1" source="J2F3tFub7HHDYsEKDTGd-6" target="J2F3tFub7HHDYsEKDTGd-2" edge="1">
          <mxGeometry width="160" relative="1" as="geometry">
            <mxPoint x="319" y="510" as="sourcePoint" />
            <mxPoint x="479" y="510" as="targetPoint" />
          </mxGeometry>
        </mxCell>
        <mxCell id="J2F3tFub7HHDYsEKDTGd-10" value="Dependency" style="endArrow=classic;endSize=16;endFill=1;html=1;rounded=0;exitX=1.001;exitY=0.47;exitDx=0;exitDy=0;exitPerimeter=0;entryX=-0.013;entryY=0.001;entryDx=0;entryDy=0;entryPerimeter=0;fillColor=#008a00;strokeColor=#005700;" parent="1" source="J2F3tFub7HHDYsEKDTGd-4" target="J2F3tFub7HHDYsEKDTGd-2" edge="1">
          <mxGeometry width="160" relative="1" as="geometry">
            <mxPoint x="250" y="474" as="sourcePoint" />
            <mxPoint x="330" y="320" as="targetPoint" />
          </mxGeometry>
        </mxCell>
        <mxCell id="J2F3tFub7HHDYsEKDTGd-11" value="Dependency" style="endArrow=classic;endSize=16;endFill=1;html=1;rounded=0;entryX=1.001;entryY=0.508;entryDx=0;entryDy=0;entryPerimeter=0;exitX=-0.002;exitY=0.508;exitDx=0;exitDy=0;exitPerimeter=0;fillColor=#008a00;strokeColor=#005700;" parent="1" source="J2F3tFub7HHDYsEKDTGd-3" target="J2F3tFub7HHDYsEKDTGd-2" edge="1">
          <mxGeometry width="160" relative="1" as="geometry">
            <mxPoint x="596" y="371" as="sourcePoint" />
            <mxPoint x="637" y="591" as="targetPoint" />
          </mxGeometry>
        </mxCell>
        <mxCell id="J2F3tFub7HHDYsEKDTGd-13" value="&lt;font size=&quot;1&quot; style=&quot;&quot;&gt;&lt;b style=&quot;font-size: 15px;&quot;&gt;View&lt;/b&gt;&lt;/font&gt;" style="verticalLabelPosition=bottom;verticalAlign=top;html=1;shape=mxgraph.basic.rect;fillColor2=none;strokeWidth=1;size=20;indent=5;fillColor=#f9f7ed;strokeColor=#36393d;" parent="1" vertex="1">
          <mxGeometry x="-30" y="220" width="61" height="30" as="geometry" />
        </mxCell>
        <mxCell id="J2F3tFub7HHDYsEKDTGd-14" value="&lt;span style=&quot;font-size: 15px;&quot;&gt;&lt;b&gt;Store&lt;/b&gt;&lt;/span&gt;" style="verticalLabelPosition=bottom;verticalAlign=top;html=1;shape=mxgraph.basic.rect;fillColor2=none;strokeWidth=1;size=20;indent=5;fillColor=#ffcccc;strokeColor=#36393d;" parent="1" vertex="1">
          <mxGeometry x="75" y="193" width="61" height="112" as="geometry" />
        </mxCell>
        <mxCell id="J2F3tFub7HHDYsEKDTGd-16" value="&lt;font size=&quot;1&quot; style=&quot;&quot;&gt;&lt;b style=&quot;font-size: 15px;&quot;&gt;View&lt;/b&gt;&lt;/font&gt;" style="verticalLabelPosition=bottom;verticalAlign=top;html=1;shape=mxgraph.basic.rect;fillColor2=none;strokeWidth=1;size=20;indent=5;fillColor=#f9f7ed;strokeColor=#36393d;" parent="1" vertex="1">
          <mxGeometry x="-25.5" y="410" width="61" height="30" as="geometry" />
        </mxCell>
        <mxCell id="J2F3tFub7HHDYsEKDTGd-17" value="&lt;span style=&quot;font-size: 15px;&quot;&gt;&lt;b&gt;Store&lt;/b&gt;&lt;/span&gt;" style="verticalLabelPosition=bottom;verticalAlign=top;html=1;shape=mxgraph.basic.rect;fillColor2=none;strokeWidth=1;size=20;indent=5;fillColor=#ffcccc;strokeColor=#36393d;" parent="1" vertex="1">
          <mxGeometry x="74.5" y="380" width="61" height="110" as="geometry" />
        </mxCell>
        <mxCell id="J2F3tFub7HHDYsEKDTGd-23" value="State" style="html=1;whiteSpace=wrap;fillColor=#ffe6cc;strokeColor=#d79b00;" parent="1" vertex="1">
          <mxGeometry x="82.5" y="385" width="46" height="20" as="geometry" />
        </mxCell>
        <mxCell id="J2F3tFub7HHDYsEKDTGd-24" value="Action" style="html=1;whiteSpace=wrap;fillColor=#ffe6cc;strokeColor=#d79b00;" parent="1" vertex="1">
          <mxGeometry x="82.5" y="465" width="46" height="20" as="geometry" />
        </mxCell>
        <mxCell id="J2F3tFub7HHDYsEKDTGd-25" value="Reduce" style="html=1;whiteSpace=wrap;fillColor=#ffe6cc;strokeColor=#d79b00;" parent="1" vertex="1">
          <mxGeometry x="82.5" y="415" width="46" height="40" as="geometry" />
        </mxCell>
        <mxCell id="J2F3tFub7HHDYsEKDTGd-26" value="State" style="html=1;whiteSpace=wrap;fillColor=#ffe6cc;strokeColor=#d79b00;" parent="1" vertex="1">
          <mxGeometry x="82.5" y="200" width="46" height="20" as="geometry" />
        </mxCell>
        <mxCell id="J2F3tFub7HHDYsEKDTGd-27" value="Action" style="html=1;whiteSpace=wrap;fillColor=#ffe6cc;strokeColor=#d79b00;" parent="1" vertex="1">
          <mxGeometry x="82.5" y="280" width="46" height="20" as="geometry" />
        </mxCell>
        <mxCell id="J2F3tFub7HHDYsEKDTGd-28" value="Reduce" style="html=1;whiteSpace=wrap;fillColor=#ffe6cc;strokeColor=#d79b00;" parent="1" vertex="1">
          <mxGeometry x="82.5" y="230" width="46" height="40" as="geometry" />
        </mxCell>
        <mxCell id="J2F3tFub7HHDYsEKDTGd-51" value="&lt;font style=&quot;font-size: 11px;&quot;&gt;&lt;b style=&quot;font-size: 11px;&quot;&gt;FetchStationsUseCase&lt;/b&gt;&lt;/font&gt;" style="verticalLabelPosition=bottom;verticalAlign=top;html=1;shape=mxgraph.basic.rect;fillColor2=none;strokeWidth=1;size=20;indent=5;fontSize=11;fillColor=#ffe6cc;strokeColor=#d79b00;" parent="1" vertex="1">
          <mxGeometry x="400" y="374" width="61" height="30" as="geometry" />
        </mxCell>
        <mxCell id="J2F3tFub7HHDYsEKDTGd-52" value="&lt;font style=&quot;font-size: 11px;&quot;&gt;&lt;b style=&quot;font-size: 11px;&quot;&gt;Model&lt;/b&gt;&lt;/font&gt;" style="verticalLabelPosition=bottom;verticalAlign=top;html=1;shape=mxgraph.basic.rect;fillColor2=none;strokeWidth=1;size=20;indent=5;fontSize=11;fillColor=#cdeb8b;strokeColor=#36393d;" parent="1" vertex="1">
          <mxGeometry x="700" y="320" width="61" height="30" as="geometry" />
        </mxCell>
        <mxCell id="J2F3tFub7HHDYsEKDTGd-53" value="&lt;font style=&quot;font-size: 11px;&quot;&gt;&lt;b style=&quot;font-size: 11px;&quot;&gt;AppiClient&lt;/b&gt;&lt;/font&gt;" style="verticalLabelPosition=bottom;verticalAlign=top;html=1;shape=mxgraph.basic.rect;fillColor2=none;strokeWidth=1;size=20;indent=5;fontSize=11;fillColor=#cdeb8b;strokeColor=#36393d;" parent="1" vertex="1">
          <mxGeometry x="700" y="374" width="61" height="30" as="geometry" />
        </mxCell>
        <mxCell id="J2F3tFub7HHDYsEKDTGd-54" value="Clean Architecture Layers" style="text;html=1;align=center;verticalAlign=middle;whiteSpace=wrap;rounded=0;fontStyle=1;fontSize=24;" parent="1" vertex="1">
          <mxGeometry x="259.25" y="585" width="349.5" height="30" as="geometry" />
        </mxCell>
        <mxCell id="J2F3tFub7HHDYsEKDTGd-55" value="Dependency Invertion" style="text;strokeColor=none;fillColor=none;spacingLeft=4;spacingRight=4;overflow=hidden;rotatable=0;points=[[0,0.5],[1,0.5]];portConstraint=eastwest;fontSize=12;whiteSpace=wrap;html=1;align=center;" parent="1" vertex="1">
          <mxGeometry x="531" y="385" width="100" height="30" as="geometry" />
        </mxCell>
      </root>
    </mxGraphModel>
  </diagram>
</mxfile>
